<mxfile host="app.diagrams.net" agent="Mozilla/5.0 (Windows NT 10.0; Win64; x64) AppleWebKit/537.36 (KHTML, like Gecko) Chrome/131.0.0.0 Safari/537.36 Edg/131.0.0.0" version="25.0.1">
  <diagram name="Trang-1" id="eYtKxpU6DP3Az-oglopi">
    <mxGraphModel dx="1112" dy="515" grid="1" gridSize="10" guides="1" tooltips="1" connect="1" arrows="1" fold="1" page="1" pageScale="1" pageWidth="827" pageHeight="1169" math="0" shadow="0">
      <root>
        <mxCell id="0" />
        <mxCell id="1" parent="0" />
        <mxCell id="Wd4Hrr9HixfUtvffdFSX-3" value="" style="edgeStyle=orthogonalEdgeStyle;rounded=0;orthogonalLoop=1;jettySize=auto;html=1;" edge="1" parent="1" source="Wd4Hrr9HixfUtvffdFSX-1" target="Wd4Hrr9HixfUtvffdFSX-2">
          <mxGeometry relative="1" as="geometry" />
        </mxCell>
        <mxCell id="Wd4Hrr9HixfUtvffdFSX-1" value="start" style="ellipse;whiteSpace=wrap;html=1;" vertex="1" parent="1">
          <mxGeometry x="240" y="30" width="120" height="80" as="geometry" />
        </mxCell>
        <mxCell id="Wd4Hrr9HixfUtvffdFSX-7" value="" style="edgeStyle=orthogonalEdgeStyle;rounded=0;orthogonalLoop=1;jettySize=auto;html=1;" edge="1" parent="1" source="Wd4Hrr9HixfUtvffdFSX-2" target="Wd4Hrr9HixfUtvffdFSX-6">
          <mxGeometry relative="1" as="geometry" />
        </mxCell>
        <mxCell id="Wd4Hrr9HixfUtvffdFSX-2" value="Nhap N" style="whiteSpace=wrap;html=1;" vertex="1" parent="1">
          <mxGeometry x="240" y="160" width="120" height="60" as="geometry" />
        </mxCell>
        <mxCell id="Wd4Hrr9HixfUtvffdFSX-9" value="" style="edgeStyle=orthogonalEdgeStyle;rounded=0;orthogonalLoop=1;jettySize=auto;html=1;" edge="1" parent="1" source="Wd4Hrr9HixfUtvffdFSX-6" target="Wd4Hrr9HixfUtvffdFSX-8">
          <mxGeometry relative="1" as="geometry" />
        </mxCell>
        <mxCell id="Wd4Hrr9HixfUtvffdFSX-6" value="i=2, result=1" style="whiteSpace=wrap;html=1;" vertex="1" parent="1">
          <mxGeometry x="240" y="300" width="120" height="60" as="geometry" />
        </mxCell>
        <mxCell id="Wd4Hrr9HixfUtvffdFSX-11" value="" style="edgeStyle=orthogonalEdgeStyle;rounded=0;orthogonalLoop=1;jettySize=auto;html=1;" edge="1" parent="1" source="Wd4Hrr9HixfUtvffdFSX-8" target="Wd4Hrr9HixfUtvffdFSX-10">
          <mxGeometry relative="1" as="geometry" />
        </mxCell>
        <mxCell id="Wd4Hrr9HixfUtvffdFSX-17" value="" style="edgeStyle=orthogonalEdgeStyle;rounded=0;orthogonalLoop=1;jettySize=auto;html=1;" edge="1" parent="1" source="Wd4Hrr9HixfUtvffdFSX-8" target="Wd4Hrr9HixfUtvffdFSX-16">
          <mxGeometry relative="1" as="geometry" />
        </mxCell>
        <mxCell id="Wd4Hrr9HixfUtvffdFSX-8" value="i&amp;lt;n" style="rhombus;whiteSpace=wrap;html=1;" vertex="1" parent="1">
          <mxGeometry x="260" y="430" width="80" height="80" as="geometry" />
        </mxCell>
        <mxCell id="Wd4Hrr9HixfUtvffdFSX-13" value="" style="edgeStyle=orthogonalEdgeStyle;rounded=0;orthogonalLoop=1;jettySize=auto;html=1;" edge="1" parent="1" source="Wd4Hrr9HixfUtvffdFSX-10" target="Wd4Hrr9HixfUtvffdFSX-12">
          <mxGeometry relative="1" as="geometry" />
        </mxCell>
        <mxCell id="Wd4Hrr9HixfUtvffdFSX-10" value="result*=i" style="whiteSpace=wrap;html=1;" vertex="1" parent="1">
          <mxGeometry x="240" y="600" width="120" height="60" as="geometry" />
        </mxCell>
        <mxCell id="Wd4Hrr9HixfUtvffdFSX-15" style="edgeStyle=orthogonalEdgeStyle;rounded=0;orthogonalLoop=1;jettySize=auto;html=1;" edge="1" parent="1" source="Wd4Hrr9HixfUtvffdFSX-12">
          <mxGeometry relative="1" as="geometry">
            <mxPoint x="290" y="400" as="targetPoint" />
            <Array as="points">
              <mxPoint x="100" y="460" />
              <mxPoint x="101" y="460" />
            </Array>
          </mxGeometry>
        </mxCell>
        <mxCell id="Wd4Hrr9HixfUtvffdFSX-12" value="i+=1" style="whiteSpace=wrap;html=1;" vertex="1" parent="1">
          <mxGeometry x="40" y="600" width="120" height="60" as="geometry" />
        </mxCell>
        <mxCell id="Wd4Hrr9HixfUtvffdFSX-14" value="true" style="text;html=1;align=center;verticalAlign=middle;whiteSpace=wrap;rounded=0;" vertex="1" parent="1">
          <mxGeometry x="310" y="530" width="60" height="30" as="geometry" />
        </mxCell>
        <mxCell id="Wd4Hrr9HixfUtvffdFSX-16" value="giai thừa của số đó là result" style="whiteSpace=wrap;html=1;" vertex="1" parent="1">
          <mxGeometry x="520" y="420" width="190" height="100" as="geometry" />
        </mxCell>
        <mxCell id="Wd4Hrr9HixfUtvffdFSX-18" value="" style="ellipse;whiteSpace=wrap;html=1;" vertex="1" parent="1">
          <mxGeometry x="820" y="420" width="120" height="80" as="geometry" />
        </mxCell>
        <mxCell id="Wd4Hrr9HixfUtvffdFSX-19" style="edgeStyle=orthogonalEdgeStyle;rounded=0;orthogonalLoop=1;jettySize=auto;html=1;entryX=0;entryY=0.6;entryDx=0;entryDy=0;entryPerimeter=0;" edge="1" parent="1" source="Wd4Hrr9HixfUtvffdFSX-16" target="Wd4Hrr9HixfUtvffdFSX-18">
          <mxGeometry relative="1" as="geometry" />
        </mxCell>
        <mxCell id="Wd4Hrr9HixfUtvffdFSX-20" value="false" style="text;html=1;align=center;verticalAlign=middle;whiteSpace=wrap;rounded=0;" vertex="1" parent="1">
          <mxGeometry x="380" y="450" width="60" height="30" as="geometry" />
        </mxCell>
      </root>
    </mxGraphModel>
  </diagram>
</mxfile>
